<svg width="204" height="34" viewBox="0 0 204 34" fill="none" xmlns="http://www.w3.org/2000/svg">
<g clip-path="url(#clip0_678_3292)">
<path d="M159.196 15.8802C159.196 22.1916 164.272 27.2814 170.567 27.2814C174.425 27.2814 178.08 25.2455 180.11 21.988L176.049 19.9521C173.816 23.006 169.551 23.6167 166.506 21.3772C163.46 19.1377 162.851 14.8623 165.084 11.8084C167.318 8.75448 171.582 8.14371 174.628 10.3832C175.237 10.7904 175.643 11.1976 176.049 11.8084L180.11 9.77244C176.861 4.47903 169.754 2.85028 164.475 6.10777C161.023 8.1437 159.196 11.8084 159.196 15.8802ZM184.984 15.6766C184.984 12.012 188.233 8.95809 191.888 8.95809C195.543 8.95809 198.588 12.2156 198.588 15.8802C198.588 19.5449 195.543 22.3952 191.888 22.5988C188.233 22.5988 185.187 19.5449 184.984 15.6766C185.187 15.8802 185.187 15.8802 184.984 15.6766ZM198.588 4.47902V6.71855C193.512 3.05388 186.608 3.86826 182.75 8.95809C178.892 14.0479 179.907 20.97 184.984 24.8383C187.014 26.2634 189.248 27.0778 191.888 27.0778C194.324 27.0778 196.761 26.2634 198.588 24.8383V27.0778L203.056 29.1138V4.47902H198.588Z" fill="#E71B4C"/>
<path d="M153.104 24.8383C153.104 26.2635 154.322 27.2814 155.541 27.2814C156.759 27.2814 157.977 26.0599 157.977 24.8383C157.977 23.6168 156.759 22.3952 155.541 22.3952C154.322 22.3952 153.104 23.4132 153.104 24.8383Z" fill="#E71B4C"/>
<path d="M4.46722 15.8802C4.46722 12.2156 7.51305 9.16168 11.1681 9.16168C14.8231 9.16168 17.8689 12.2156 17.8689 15.8802C17.8689 19.5449 14.8231 22.5988 11.1681 22.5988C7.51305 22.5988 4.46722 19.5449 4.46722 15.8802ZM4.46722 6.71857V4.47904H0V33.7964L4.46722 31.7605V24.8383C9.5436 28.503 16.4475 27.6886 20.3056 22.5988C23.9606 17.509 23.1483 10.5868 18.0719 6.71857C16.0414 5.29342 13.8078 4.47904 11.1681 4.47904C8.93444 4.47904 6.49777 5.29342 4.46722 6.71857ZM34.5194 4.47904C32.895 4.47904 31.4736 4.88623 30.0522 5.7006V4.47904H25.585V27.0778H30.0522V13.4371C30.0522 10.994 32.0828 8.9581 34.5194 8.9581H36.7531V4.47904H34.5194ZM41.8294 15.8802C41.8294 12.2156 44.8753 9.16168 48.5303 9.16168C52.1853 9.16168 55.2311 12.2156 55.2311 15.8802C55.2311 19.5449 52.1853 22.5988 48.5303 22.5988C44.8753 22.5988 41.8294 19.5449 41.8294 15.8802ZM37.3622 15.8802C37.3622 22.1916 42.4386 27.2815 48.5303 27.2815C54.825 27.2815 59.9014 22.1916 59.9014 16.0839C59.9014 9.77247 54.825 4.68264 48.7333 4.68264C42.2355 4.47905 37.3622 9.56887 37.3622 15.8802ZM66.6022 15.8802C66.6022 12.2156 69.6481 9.16168 73.3031 9.16168C76.9581 9.16168 80.0039 12.2156 80.0039 15.8802C80.0039 19.5449 76.9581 22.5988 73.3031 22.5988C69.6481 22.5988 66.6022 19.5449 66.6022 15.8802ZM66.6022 6.71857V4.47904H62.135V33.7964L66.6022 32.1677V24.6347C71.6786 28.2994 78.5825 27.2814 82.4406 22.3952C86.2986 17.509 85.0803 10.3832 80.2069 6.51496C78.1764 5.08981 75.9428 4.27546 73.5061 4.27546C70.8664 4.47905 68.6328 5.29342 66.6022 6.71857ZM97.0605 8.9581C99.9033 8.9581 102.543 10.7904 103.355 13.4371H90.5628C91.5781 10.7904 94.2178 8.9581 97.0605 8.9581ZM85.6894 15.8802C85.6894 22.1916 90.7658 27.2814 97.0605 27.0778C101.528 27.0778 105.589 24.4311 107.416 20.3593H102.137C99.7003 23.2096 95.4361 23.4132 92.5933 20.9701C91.7811 20.1557 91.1719 19.3413 90.7658 18.1198H108.229C108.432 17.3054 108.432 16.6946 108.432 15.8802C108.229 9.56887 102.949 4.88623 96.6544 5.08982C90.7658 5.29341 86.0955 9.97605 85.6894 15.8802ZM120.818 4.47904C119.194 4.47904 117.772 4.88623 116.351 5.7006V4.47904H111.681V27.0778H116.148V13.4371C116.148 10.994 118.178 8.9581 120.615 8.9581H122.849V4.47904H120.818ZM153.104 4.47904L147.215 17.1018L141.327 4.47904H136.25L144.576 22.5988L140.108 31.9641L144.169 33.7964L157.977 4.47904H153.104ZM125.894 2.03593V18.527C125.894 23.6168 129.752 27.6886 134.829 27.6886C134.829 27.6886 134.829 27.6886 135.032 27.6886H137.266V23.006H135.032C132.595 23.006 130.565 20.9701 130.565 18.527V8.9581H135.641L133.407 4.47904H130.565V0L125.894 2.03593Z" fill="white"/>
</g>
<defs>
<clipPath id="clip0_678_3292">
<rect width="203.056" height="34" fill="white"/>
</clipPath>
</defs>
</svg>
