<svg width="162" height="27" viewBox="0 0 162 27" fill="none" xmlns="http://www.w3.org/2000/svg">
<g clip-path="url(#clip0_682_3315)">
<path d="M126.724 12.6108C126.724 17.6227 130.749 21.6647 135.74 21.6647C138.799 21.6647 141.697 20.0479 143.307 17.4611L140.087 15.8443C138.316 18.2695 134.935 18.7545 132.52 16.976C130.105 15.1976 129.622 11.8024 131.393 9.37724C133.164 6.95209 136.545 6.46706 138.96 8.24551C139.443 8.56886 139.765 8.89221 140.087 9.37724L143.307 7.76047C140.731 3.55688 135.096 2.26346 130.91 4.85029C128.173 6.46705 126.724 9.37724 126.724 12.6108ZM147.171 12.4491C147.171 9.5389 149.747 7.11377 152.645 7.11377C155.543 7.11377 157.958 9.70059 157.958 12.6108C157.958 15.521 155.543 17.7844 152.645 17.9461C149.747 17.9461 147.332 15.5209 147.171 12.4491C147.332 12.6108 147.332 12.6108 147.171 12.4491ZM157.958 3.55687V5.33532C153.933 2.42514 148.459 3.07186 145.4 7.11377C142.341 11.1557 143.146 16.6527 147.171 19.7245C148.781 20.8563 150.552 21.503 152.645 21.503C154.577 21.503 156.509 20.8563 157.958 19.7245V21.503L161.5 23.1198V3.55687H157.958Z" fill="#E71B4C"/>
<path d="M121.894 19.7245C121.894 20.8563 122.86 21.6647 123.826 21.6647C124.792 21.6647 125.758 20.6946 125.758 19.7245C125.758 18.7545 124.792 17.7844 123.826 17.7844C122.86 17.7844 121.894 18.5928 121.894 19.7245Z" fill="#E71B4C"/>
<path d="M4.04199 12.6108C4.04199 9.7006 6.457 7.27545 9.355 7.27545C12.253 7.27545 14.668 9.7006 14.668 12.6108C14.668 15.521 12.253 17.9461 9.355 17.9461C6.457 17.9461 4.04199 15.521 4.04199 12.6108ZM4.04199 5.33533V3.55688H0.5V26.8383L4.04199 25.2216V19.7245C8.06699 22.6347 13.541 21.988 16.6 17.9461C19.498 13.9042 18.854 8.40719 14.829 5.33533C13.219 4.2036 11.448 3.55688 9.355 3.55688C7.584 3.55688 5.65199 4.2036 4.04199 5.33533ZM27.87 3.55688C26.582 3.55688 25.455 3.88024 24.328 4.52695V3.55688H20.786V21.503H24.328V10.6707C24.328 8.73055 25.938 7.11379 27.87 7.11379H29.641V3.55688H27.87ZM33.666 12.6108C33.666 9.7006 36.081 7.27545 38.979 7.27545C41.877 7.27545 44.292 9.7006 44.292 12.6108C44.292 15.521 41.877 17.9461 38.979 17.9461C36.081 17.9461 33.666 15.521 33.666 12.6108ZM30.124 12.6108C30.124 17.6228 34.149 21.6647 38.979 21.6647C43.97 21.6647 47.995 17.6228 47.995 12.7725C47.995 7.76049 43.97 3.71857 39.14 3.71857C33.988 3.55689 30.124 7.59881 30.124 12.6108ZM53.308 12.6108C53.308 9.7006 55.723 7.27545 58.621 7.27545C61.519 7.27545 63.934 9.7006 63.934 12.6108C63.934 15.521 61.519 17.9461 58.621 17.9461C55.723 17.9461 53.308 15.521 53.308 12.6108ZM53.308 5.33533V3.55688H49.766V26.8383L53.308 25.5449V19.5629C57.333 22.4731 62.807 21.6647 65.866 17.7844C68.925 13.9042 67.959 8.2455 64.095 5.17365C62.485 4.04191 60.714 3.39522 58.782 3.39522C56.689 3.5569 54.918 4.2036 53.308 5.33533ZM77.458 7.11379C79.712 7.11379 81.805 8.56887 82.449 10.6707H72.306C73.111 8.56887 75.204 7.11379 77.458 7.11379ZM68.442 12.6108C68.442 17.6228 72.467 21.6647 77.458 21.503C81 21.503 84.22 19.4012 85.669 16.1677H81.483C79.551 18.4311 76.17 18.5928 73.916 16.6527C73.272 16.006 72.789 15.3593 72.467 14.3892H86.313C86.474 13.7425 86.474 13.2575 86.474 12.6108C86.313 7.59881 82.127 3.88024 77.136 4.04192C72.467 4.20359 68.764 7.92216 68.442 12.6108ZM96.295 3.55688C95.007 3.55688 93.88 3.88024 92.753 4.52695V3.55688H89.05V21.503H92.592V10.6707C92.592 8.73055 94.202 7.11379 96.134 7.11379H97.905V3.55688H96.295ZM121.894 3.55688L117.225 13.5809L112.556 3.55688H108.531L115.132 17.9461L111.59 25.3832L114.81 26.8383L125.758 3.55688H121.894ZM100.32 1.61677V14.7126C100.32 18.7545 103.379 21.988 107.404 21.988C107.404 21.988 107.404 21.988 107.565 21.988H109.336V18.2695H107.565C105.633 18.2695 104.023 16.6527 104.023 14.7126V7.11379H108.048L106.277 3.55688H104.023V0L100.32 1.61677Z" fill="#07364B"/>
</g>
<defs>
<clipPath id="clip0_682_3315">
<rect width="161" height="27" fill="white" transform="translate(0.5)"/>
</clipPath>
</defs>
</svg>
